<?xml version="1.0" encoding="utf-8"?>
<svg xmlns="http://www.w3.org/2000/svg" xmlns:xlink="http://www.w3.org/1999/xlink" width="600" height="600" viewBox="0 0 2400 2400">
<defs>
  <clipPath id="clip070">
    <rect x="0" y="0" width="2400" height="2400"/>
  </clipPath>
</defs>
<path clip-path="url(#clip070)" d="
M0 2400 L2400 2400 L2400 0 L0 0  Z
  " fill="#ffffff" fill-rule="evenodd" fill-opacity="1"/>
<defs>
  <clipPath id="clip071">
    <rect x="480" y="240" width="1681" height="1681"/>
  </clipPath>
</defs>
<path clip-path="url(#clip070)" d="
M225.987 2174.14 L2352.76 2174.14 L2352.76 153.712 L225.987 153.712  Z
  " fill="#ffffff" fill-rule="evenodd" fill-opacity="1"/>
<defs>
  <clipPath id="clip072">
    <rect x="225" y="153" width="2128" height="2021"/>
  </clipPath>
</defs>
<polyline clip-path="url(#clip072)" style="stroke:#000000; stroke-linecap:butt; stroke-linejoin:round; stroke-width:2; stroke-opacity:0.1; fill:none" points="
  282.158,2174.14 282.158,153.712 
  "/>
<polyline clip-path="url(#clip072)" style="stroke:#000000; stroke-linecap:butt; stroke-linejoin:round; stroke-width:2; stroke-opacity:0.1; fill:none" points="
  684.239,2174.14 684.239,153.712 
  "/>
<polyline clip-path="url(#clip072)" style="stroke:#000000; stroke-linecap:butt; stroke-linejoin:round; stroke-width:2; stroke-opacity:0.1; fill:none" points="
  1086.32,2174.14 1086.32,153.712 
  "/>
<polyline clip-path="url(#clip072)" style="stroke:#000000; stroke-linecap:butt; stroke-linejoin:round; stroke-width:2; stroke-opacity:0.1; fill:none" points="
  1488.4,2174.14 1488.4,153.712 
  "/>
<polyline clip-path="url(#clip072)" style="stroke:#000000; stroke-linecap:butt; stroke-linejoin:round; stroke-width:2; stroke-opacity:0.1; fill:none" points="
  1890.48,2174.14 1890.48,153.712 
  "/>
<polyline clip-path="url(#clip072)" style="stroke:#000000; stroke-linecap:butt; stroke-linejoin:round; stroke-width:2; stroke-opacity:0.1; fill:none" points="
  2292.56,2174.14 2292.56,153.712 
  "/>
<polyline clip-path="url(#clip070)" style="stroke:#000000; stroke-linecap:butt; stroke-linejoin:round; stroke-width:4; stroke-opacity:1; fill:none" points="
  225.987,2174.14 2352.76,2174.14 
  "/>
<polyline clip-path="url(#clip070)" style="stroke:#000000; stroke-linecap:butt; stroke-linejoin:round; stroke-width:4; stroke-opacity:1; fill:none" points="
  282.158,2174.14 282.158,2155.24 
  "/>
<polyline clip-path="url(#clip070)" style="stroke:#000000; stroke-linecap:butt; stroke-linejoin:round; stroke-width:4; stroke-opacity:1; fill:none" points="
  684.239,2174.14 684.239,2155.24 
  "/>
<polyline clip-path="url(#clip070)" style="stroke:#000000; stroke-linecap:butt; stroke-linejoin:round; stroke-width:4; stroke-opacity:1; fill:none" points="
  1086.32,2174.14 1086.32,2155.24 
  "/>
<polyline clip-path="url(#clip070)" style="stroke:#000000; stroke-linecap:butt; stroke-linejoin:round; stroke-width:4; stroke-opacity:1; fill:none" points="
  1488.4,2174.14 1488.4,2155.24 
  "/>
<polyline clip-path="url(#clip070)" style="stroke:#000000; stroke-linecap:butt; stroke-linejoin:round; stroke-width:4; stroke-opacity:1; fill:none" points="
  1890.48,2174.14 1890.48,2155.24 
  "/>
<polyline clip-path="url(#clip070)" style="stroke:#000000; stroke-linecap:butt; stroke-linejoin:round; stroke-width:4; stroke-opacity:1; fill:none" points="
  2292.56,2174.14 2292.56,2155.24 
  "/>
<path clip-path="url(#clip070)" d="M282.158 2205.06 Q278.547 2205.06 276.718 2208.62 Q274.913 2212.16 274.913 2219.29 Q274.913 2226.4 276.718 2229.97 Q278.547 2233.51 282.158 2233.51 Q285.792 2233.51 287.598 2229.97 Q289.427 2226.4 289.427 2219.29 Q289.427 2212.16 287.598 2208.62 Q285.792 2205.06 282.158 2205.06 M282.158 2201.35 Q287.968 2201.35 291.024 2205.96 Q294.103 2210.54 294.103 2219.29 Q294.103 2228.02 291.024 2232.63 Q287.968 2237.21 282.158 2237.21 Q276.348 2237.21 273.269 2232.63 Q270.214 2228.02 270.214 2219.29 Q270.214 2210.54 273.269 2205.96 Q276.348 2201.35 282.158 2201.35 Z" fill="#000000" fill-rule="evenodd" fill-opacity="1" /><path clip-path="url(#clip070)" d="M643.846 2232.6 L651.485 2232.6 L651.485 2206.24 L643.175 2207.91 L643.175 2203.65 L651.439 2201.98 L656.115 2201.98 L656.115 2232.6 L663.753 2232.6 L663.753 2236.54 L643.846 2236.54 L643.846 2232.6 Z" fill="#000000" fill-rule="evenodd" fill-opacity="1" /><path clip-path="url(#clip070)" d="M683.198 2205.06 Q679.587 2205.06 677.758 2208.62 Q675.952 2212.16 675.952 2219.29 Q675.952 2226.4 677.758 2229.97 Q679.587 2233.51 683.198 2233.51 Q686.832 2233.51 688.638 2229.97 Q690.466 2226.4 690.466 2219.29 Q690.466 2212.16 688.638 2208.62 Q686.832 2205.06 683.198 2205.06 M683.198 2201.35 Q689.008 2201.35 692.063 2205.96 Q695.142 2210.54 695.142 2219.29 Q695.142 2228.02 692.063 2232.63 Q689.008 2237.21 683.198 2237.21 Q677.388 2237.21 674.309 2232.63 Q671.253 2228.02 671.253 2219.29 Q671.253 2210.54 674.309 2205.96 Q677.388 2201.35 683.198 2201.35 Z" fill="#000000" fill-rule="evenodd" fill-opacity="1" /><path clip-path="url(#clip070)" d="M713.36 2205.06 Q709.749 2205.06 707.92 2208.62 Q706.114 2212.16 706.114 2219.29 Q706.114 2226.4 707.92 2229.97 Q709.749 2233.51 713.36 2233.51 Q716.994 2233.51 718.799 2229.97 Q720.628 2226.4 720.628 2219.29 Q720.628 2212.16 718.799 2208.62 Q716.994 2205.06 713.36 2205.06 M713.36 2201.35 Q719.17 2201.35 722.225 2205.96 Q725.304 2210.54 725.304 2219.29 Q725.304 2228.02 722.225 2232.63 Q719.17 2237.21 713.36 2237.21 Q707.55 2237.21 704.471 2232.63 Q701.415 2228.02 701.415 2219.29 Q701.415 2210.54 704.471 2205.96 Q707.55 2201.35 713.36 2201.35 Z" fill="#000000" fill-rule="evenodd" fill-opacity="1" /><path clip-path="url(#clip070)" d="M1050.01 2232.6 L1066.33 2232.6 L1066.33 2236.54 L1044.39 2236.54 L1044.39 2232.6 Q1047.05 2229.85 1051.63 2225.22 Q1056.24 2220.57 1057.42 2219.23 Q1059.67 2216.7 1060.55 2214.97 Q1061.45 2213.21 1061.45 2211.52 Q1061.45 2208.76 1059.5 2207.03 Q1057.58 2205.29 1054.48 2205.29 Q1052.28 2205.29 1049.83 2206.05 Q1047.4 2206.82 1044.62 2208.37 L1044.62 2203.65 Q1047.44 2202.51 1049.9 2201.93 Q1052.35 2201.35 1054.39 2201.35 Q1059.76 2201.35 1062.95 2204.04 Q1066.15 2206.73 1066.15 2211.22 Q1066.15 2213.35 1065.34 2215.27 Q1064.55 2217.16 1062.44 2219.76 Q1061.86 2220.43 1058.76 2223.65 Q1055.66 2226.84 1050.01 2232.6 Z" fill="#000000" fill-rule="evenodd" fill-opacity="1" /><path clip-path="url(#clip070)" d="M1086.15 2205.06 Q1082.54 2205.06 1080.71 2208.62 Q1078.9 2212.16 1078.9 2219.29 Q1078.9 2226.4 1080.71 2229.97 Q1082.54 2233.51 1086.15 2233.51 Q1089.78 2233.51 1091.59 2229.97 Q1093.42 2226.4 1093.42 2219.29 Q1093.42 2212.16 1091.59 2208.62 Q1089.78 2205.06 1086.15 2205.06 M1086.15 2201.35 Q1091.96 2201.35 1095.01 2205.96 Q1098.09 2210.54 1098.09 2219.29 Q1098.09 2228.02 1095.01 2232.63 Q1091.96 2237.21 1086.15 2237.21 Q1080.34 2237.21 1077.26 2232.63 Q1074.2 2228.02 1074.2 2219.29 Q1074.2 2210.54 1077.26 2205.96 Q1080.34 2201.35 1086.15 2201.35 Z" fill="#000000" fill-rule="evenodd" fill-opacity="1" /><path clip-path="url(#clip070)" d="M1116.31 2205.06 Q1112.7 2205.06 1110.87 2208.62 Q1109.06 2212.16 1109.06 2219.29 Q1109.06 2226.4 1110.87 2229.97 Q1112.7 2233.51 1116.31 2233.51 Q1119.94 2233.51 1121.75 2229.97 Q1123.58 2226.4 1123.58 2219.29 Q1123.58 2212.16 1121.75 2208.62 Q1119.94 2205.06 1116.31 2205.06 M1116.31 2201.35 Q1122.12 2201.35 1125.17 2205.96 Q1128.25 2210.54 1128.25 2219.29 Q1128.25 2228.02 1125.17 2232.63 Q1122.12 2237.21 1116.31 2237.21 Q1110.5 2237.21 1107.42 2232.63 Q1104.36 2228.02 1104.36 2219.29 Q1104.36 2210.54 1107.42 2205.96 Q1110.5 2201.35 1116.31 2201.35 Z" fill="#000000" fill-rule="evenodd" fill-opacity="1" /><path clip-path="url(#clip070)" d="M1462.16 2217.91 Q1465.52 2218.62 1467.4 2220.89 Q1469.29 2223.16 1469.29 2226.49 Q1469.29 2231.61 1465.77 2234.41 Q1462.26 2237.21 1455.77 2237.21 Q1453.6 2237.21 1451.28 2236.77 Q1448.99 2236.35 1446.54 2235.5 L1446.54 2230.98 Q1448.48 2232.12 1450.8 2232.7 Q1453.11 2233.28 1455.64 2233.28 Q1460.03 2233.28 1462.33 2231.54 Q1464.64 2229.8 1464.64 2226.49 Q1464.64 2223.44 1462.49 2221.73 Q1460.36 2219.99 1456.54 2219.99 L1452.51 2219.99 L1452.51 2216.15 L1456.72 2216.15 Q1460.17 2216.15 1462 2214.78 Q1463.83 2213.39 1463.83 2210.8 Q1463.83 2208.14 1461.93 2206.73 Q1460.06 2205.29 1456.54 2205.29 Q1454.62 2205.29 1452.42 2205.71 Q1450.22 2206.12 1447.58 2207 L1447.58 2202.84 Q1450.24 2202.1 1452.56 2201.73 Q1454.9 2201.35 1456.96 2201.35 Q1462.28 2201.35 1465.38 2203.79 Q1468.48 2206.19 1468.48 2210.31 Q1468.48 2213.18 1466.84 2215.17 Q1465.2 2217.14 1462.16 2217.91 Z" fill="#000000" fill-rule="evenodd" fill-opacity="1" /><path clip-path="url(#clip070)" d="M1488.16 2205.06 Q1484.55 2205.06 1482.72 2208.62 Q1480.91 2212.16 1480.91 2219.29 Q1480.91 2226.4 1482.72 2229.97 Q1484.55 2233.51 1488.16 2233.51 Q1491.79 2233.51 1493.6 2229.97 Q1495.43 2226.4 1495.43 2219.29 Q1495.43 2212.16 1493.6 2208.62 Q1491.79 2205.06 1488.16 2205.06 M1488.16 2201.35 Q1493.97 2201.35 1497.02 2205.96 Q1500.1 2210.54 1500.1 2219.29 Q1500.1 2228.02 1497.02 2232.63 Q1493.97 2237.21 1488.16 2237.21 Q1482.35 2237.21 1479.27 2232.63 Q1476.21 2228.02 1476.21 2219.29 Q1476.21 2210.54 1479.27 2205.96 Q1482.35 2201.35 1488.16 2201.35 Z" fill="#000000" fill-rule="evenodd" fill-opacity="1" /><path clip-path="url(#clip070)" d="M1518.32 2205.06 Q1514.71 2205.06 1512.88 2208.62 Q1511.08 2212.16 1511.08 2219.29 Q1511.08 2226.4 1512.88 2229.97 Q1514.71 2233.51 1518.32 2233.51 Q1521.95 2233.51 1523.76 2229.97 Q1525.59 2226.4 1525.59 2219.29 Q1525.59 2212.16 1523.76 2208.62 Q1521.95 2205.06 1518.32 2205.06 M1518.32 2201.35 Q1524.13 2201.35 1527.19 2205.96 Q1530.27 2210.54 1530.27 2219.29 Q1530.27 2228.02 1527.19 2232.63 Q1524.13 2237.21 1518.32 2237.21 Q1512.51 2237.21 1509.43 2232.63 Q1506.38 2228.02 1506.38 2219.29 Q1506.38 2210.54 1509.43 2205.96 Q1512.51 2201.35 1518.32 2201.35 Z" fill="#000000" fill-rule="evenodd" fill-opacity="1" /><path clip-path="url(#clip070)" d="M1863.57 2206.05 L1851.77 2224.5 L1863.57 2224.5 L1863.57 2206.05 M1862.35 2201.98 L1868.23 2201.98 L1868.23 2224.5 L1873.16 2224.5 L1873.16 2228.39 L1868.23 2228.39 L1868.23 2236.54 L1863.57 2236.54 L1863.57 2228.39 L1847.97 2228.39 L1847.97 2223.88 L1862.35 2201.98 Z" fill="#000000" fill-rule="evenodd" fill-opacity="1" /><path clip-path="url(#clip070)" d="M1890.89 2205.06 Q1887.28 2205.06 1885.45 2208.62 Q1883.64 2212.16 1883.64 2219.29 Q1883.64 2226.4 1885.45 2229.97 Q1887.28 2233.51 1890.89 2233.51 Q1894.52 2233.51 1896.33 2229.97 Q1898.16 2226.4 1898.16 2219.29 Q1898.16 2212.16 1896.33 2208.62 Q1894.52 2205.06 1890.89 2205.06 M1890.89 2201.35 Q1896.7 2201.35 1899.75 2205.96 Q1902.83 2210.54 1902.83 2219.29 Q1902.83 2228.02 1899.75 2232.63 Q1896.7 2237.21 1890.89 2237.21 Q1885.08 2237.21 1882 2232.63 Q1878.94 2228.02 1878.94 2219.29 Q1878.94 2210.54 1882 2205.96 Q1885.08 2201.35 1890.89 2201.35 Z" fill="#000000" fill-rule="evenodd" fill-opacity="1" /><path clip-path="url(#clip070)" d="M1921.05 2205.06 Q1917.44 2205.06 1915.61 2208.62 Q1913.8 2212.16 1913.8 2219.29 Q1913.8 2226.4 1915.61 2229.97 Q1917.44 2233.51 1921.05 2233.51 Q1924.68 2233.51 1926.49 2229.97 Q1928.32 2226.4 1928.32 2219.29 Q1928.32 2212.16 1926.49 2208.62 Q1924.68 2205.06 1921.05 2205.06 M1921.05 2201.35 Q1926.86 2201.35 1929.92 2205.96 Q1932.99 2210.54 1932.99 2219.29 Q1932.99 2228.02 1929.92 2232.63 Q1926.86 2237.21 1921.05 2237.21 Q1915.24 2237.21 1912.16 2232.63 Q1909.11 2228.02 1909.11 2219.29 Q1909.11 2210.54 1912.16 2205.96 Q1915.24 2201.35 1921.05 2201.35 Z" fill="#000000" fill-rule="evenodd" fill-opacity="1" /><path clip-path="url(#clip070)" d="M2252.18 2201.98 L2270.54 2201.98 L2270.54 2205.92 L2256.47 2205.92 L2256.47 2214.39 Q2257.48 2214.04 2258.5 2213.88 Q2259.52 2213.69 2260.54 2213.69 Q2266.33 2213.69 2269.71 2216.86 Q2273.09 2220.04 2273.09 2225.45 Q2273.09 2231.03 2269.61 2234.13 Q2266.14 2237.21 2259.82 2237.21 Q2257.65 2237.21 2255.38 2236.84 Q2253.13 2236.47 2250.72 2235.73 L2250.72 2231.03 Q2252.81 2232.16 2255.03 2232.72 Q2257.25 2233.28 2259.73 2233.28 Q2263.73 2233.28 2266.07 2231.17 Q2268.41 2229.06 2268.41 2225.45 Q2268.41 2221.84 2266.07 2219.73 Q2263.73 2217.63 2259.73 2217.63 Q2257.85 2217.63 2255.98 2218.04 Q2254.13 2218.46 2252.18 2219.34 L2252.18 2201.98 Z" fill="#000000" fill-rule="evenodd" fill-opacity="1" /><path clip-path="url(#clip070)" d="M2292.3 2205.06 Q2288.69 2205.06 2286.86 2208.62 Q2285.05 2212.16 2285.05 2219.29 Q2285.05 2226.4 2286.86 2229.97 Q2288.69 2233.51 2292.3 2233.51 Q2295.93 2233.51 2297.74 2229.97 Q2299.57 2226.4 2299.57 2219.29 Q2299.57 2212.16 2297.74 2208.62 Q2295.93 2205.06 2292.3 2205.06 M2292.3 2201.35 Q2298.11 2201.35 2301.16 2205.96 Q2304.24 2210.54 2304.24 2219.29 Q2304.24 2228.02 2301.16 2232.63 Q2298.11 2237.21 2292.3 2237.21 Q2286.49 2237.21 2283.41 2232.63 Q2280.35 2228.02 2280.35 2219.29 Q2280.35 2210.54 2283.41 2205.96 Q2286.49 2201.35 2292.3 2201.35 Z" fill="#000000" fill-rule="evenodd" fill-opacity="1" /><path clip-path="url(#clip070)" d="M2322.46 2205.06 Q2318.85 2205.06 2317.02 2208.62 Q2315.21 2212.16 2315.21 2219.29 Q2315.21 2226.4 2317.02 2229.97 Q2318.85 2233.51 2322.46 2233.51 Q2326.09 2233.51 2327.9 2229.97 Q2329.73 2226.4 2329.73 2219.29 Q2329.73 2212.16 2327.9 2208.62 Q2326.09 2205.06 2322.46 2205.06 M2322.46 2201.35 Q2328.27 2201.35 2331.33 2205.96 Q2334.4 2210.54 2334.4 2219.29 Q2334.4 2228.02 2331.33 2232.63 Q2328.27 2237.21 2322.46 2237.21 Q2316.65 2237.21 2313.57 2232.63 Q2310.52 2228.02 2310.52 2219.29 Q2310.52 2210.54 2313.57 2205.96 Q2316.65 2201.35 2322.46 2201.35 Z" fill="#000000" fill-rule="evenodd" fill-opacity="1" /><path clip-path="url(#clip070)" d="M1177.38 2271.48 L1207.43 2271.48 L1207.43 2276.89 L1183.81 2276.89 L1183.81 2290.96 L1206.44 2290.96 L1206.44 2296.37 L1183.81 2296.37 L1183.81 2313.59 L1208 2313.59 L1208 2319 L1177.38 2319 L1177.38 2271.48 Z" fill="#000000" fill-rule="evenodd" fill-opacity="1" /><path clip-path="url(#clip070)" d="M1223.98 2313.66 L1223.98 2332.56 L1218.09 2332.56 L1218.09 2283.36 L1223.98 2283.36 L1223.98 2288.77 Q1225.83 2285.58 1228.63 2284.06 Q1231.46 2282.5 1235.37 2282.5 Q1241.87 2282.5 1245.91 2287.65 Q1249.98 2292.81 1249.98 2301.21 Q1249.98 2309.61 1245.91 2314.77 Q1241.87 2319.93 1235.37 2319.93 Q1231.46 2319.93 1228.63 2318.4 Q1225.83 2316.84 1223.98 2313.66 M1243.9 2301.21 Q1243.9 2294.75 1241.23 2291.09 Q1238.59 2287.4 1233.94 2287.4 Q1229.3 2287.4 1226.62 2291.09 Q1223.98 2294.75 1223.98 2301.21 Q1223.98 2307.67 1226.62 2311.36 Q1229.3 2315.03 1233.94 2315.03 Q1238.59 2315.03 1241.23 2311.36 Q1243.9 2307.67 1243.9 2301.21 Z" fill="#000000" fill-rule="evenodd" fill-opacity="1" /><path clip-path="url(#clip070)" d="M1273.51 2287.46 Q1268.79 2287.46 1266.06 2291.15 Q1263.32 2294.81 1263.32 2301.21 Q1263.32 2307.61 1266.03 2311.3 Q1268.76 2314.96 1273.51 2314.96 Q1278.18 2314.96 1280.92 2311.27 Q1283.66 2307.58 1283.66 2301.21 Q1283.66 2294.88 1280.92 2291.19 Q1278.18 2287.46 1273.51 2287.46 M1273.51 2282.5 Q1281.14 2282.5 1285.5 2287.46 Q1289.87 2292.43 1289.87 2301.21 Q1289.87 2309.96 1285.5 2314.96 Q1281.14 2319.93 1273.51 2319.93 Q1265.83 2319.93 1261.47 2314.96 Q1257.15 2309.96 1257.15 2301.21 Q1257.15 2292.43 1261.47 2287.46 Q1265.83 2282.5 1273.51 2282.5 Z" fill="#000000" fill-rule="evenodd" fill-opacity="1" /><path clip-path="url(#clip070)" d="M1325.23 2284.72 L1325.23 2290.2 Q1322.74 2288.83 1320.23 2288.16 Q1317.75 2287.46 1315.2 2287.46 Q1309.5 2287.46 1306.35 2291.09 Q1303.2 2294.69 1303.2 2301.21 Q1303.2 2307.74 1306.35 2311.36 Q1309.5 2314.96 1315.2 2314.96 Q1317.75 2314.96 1320.23 2314.29 Q1322.74 2313.59 1325.23 2312.22 L1325.23 2317.64 Q1322.78 2318.78 1320.13 2319.35 Q1317.52 2319.93 1314.56 2319.93 Q1306.51 2319.93 1301.77 2314.87 Q1297.03 2309.81 1297.03 2301.21 Q1297.03 2292.49 1301.8 2287.49 Q1306.61 2282.5 1314.95 2282.5 Q1317.65 2282.5 1320.23 2283.07 Q1322.81 2283.61 1325.23 2284.72 Z" fill="#000000" fill-rule="evenodd" fill-opacity="1" /><path clip-path="url(#clip070)" d="M1365.04 2297.49 L1365.04 2319 L1359.19 2319 L1359.19 2297.68 Q1359.19 2292.62 1357.21 2290.1 Q1355.24 2287.59 1351.29 2287.59 Q1346.55 2287.59 1343.81 2290.61 Q1341.08 2293.64 1341.08 2298.86 L1341.08 2319 L1335.19 2319 L1335.19 2269.48 L1341.08 2269.48 L1341.08 2288.89 Q1343.18 2285.68 1346.01 2284.09 Q1348.88 2282.5 1352.6 2282.5 Q1358.74 2282.5 1361.89 2286.32 Q1365.04 2290.1 1365.04 2297.49 Z" fill="#000000" fill-rule="evenodd" fill-opacity="1" /><path clip-path="url(#clip070)" d="M1399.45 2284.41 L1399.45 2289.94 Q1396.97 2288.67 1394.29 2288.03 Q1391.62 2287.4 1388.76 2287.4 Q1384.4 2287.4 1382.2 2288.73 Q1380.04 2290.07 1380.04 2292.75 Q1380.04 2294.78 1381.59 2295.96 Q1383.15 2297.11 1387.87 2298.16 L1389.87 2298.6 Q1396.11 2299.94 1398.72 2302.39 Q1401.36 2304.81 1401.36 2309.17 Q1401.36 2314.13 1397.41 2317.03 Q1393.5 2319.93 1386.62 2319.93 Q1383.76 2319.93 1380.64 2319.35 Q1377.55 2318.81 1374.12 2317.7 L1374.12 2311.65 Q1377.36 2313.34 1380.51 2314.2 Q1383.66 2315.03 1386.75 2315.03 Q1390.89 2315.03 1393.12 2313.62 Q1395.34 2312.19 1395.34 2309.61 Q1395.34 2307.23 1393.72 2305.95 Q1392.13 2304.68 1386.69 2303.5 L1384.65 2303.03 Q1379.21 2301.88 1376.79 2299.52 Q1374.37 2297.14 1374.37 2293 Q1374.37 2287.97 1377.93 2285.23 Q1381.5 2282.5 1388.06 2282.5 Q1391.3 2282.5 1394.17 2282.97 Q1397.03 2283.45 1399.45 2284.41 Z" fill="#000000" fill-rule="evenodd" fill-opacity="1" /><polyline clip-path="url(#clip072)" style="stroke:#000000; stroke-linecap:butt; stroke-linejoin:round; stroke-width:2; stroke-opacity:0.1; fill:none" points="
  225.987,2122.11 2352.76,2122.11 
  "/>
<polyline clip-path="url(#clip072)" style="stroke:#000000; stroke-linecap:butt; stroke-linejoin:round; stroke-width:2; stroke-opacity:0.1; fill:none" points="
  225.987,1703.64 2352.76,1703.64 
  "/>
<polyline clip-path="url(#clip072)" style="stroke:#000000; stroke-linecap:butt; stroke-linejoin:round; stroke-width:2; stroke-opacity:0.1; fill:none" points="
  225.987,1285.17 2352.76,1285.17 
  "/>
<polyline clip-path="url(#clip072)" style="stroke:#000000; stroke-linecap:butt; stroke-linejoin:round; stroke-width:2; stroke-opacity:0.1; fill:none" points="
  225.987,866.697 2352.76,866.697 
  "/>
<polyline clip-path="url(#clip072)" style="stroke:#000000; stroke-linecap:butt; stroke-linejoin:round; stroke-width:2; stroke-opacity:0.1; fill:none" points="
  225.987,448.224 2352.76,448.224 
  "/>
<polyline clip-path="url(#clip070)" style="stroke:#000000; stroke-linecap:butt; stroke-linejoin:round; stroke-width:4; stroke-opacity:1; fill:none" points="
  225.987,2174.14 225.987,153.712 
  "/>
<polyline clip-path="url(#clip070)" style="stroke:#000000; stroke-linecap:butt; stroke-linejoin:round; stroke-width:4; stroke-opacity:1; fill:none" points="
  225.987,2122.11 244.885,2122.11 
  "/>
<polyline clip-path="url(#clip070)" style="stroke:#000000; stroke-linecap:butt; stroke-linejoin:round; stroke-width:4; stroke-opacity:1; fill:none" points="
  225.987,1703.64 244.885,1703.64 
  "/>
<polyline clip-path="url(#clip070)" style="stroke:#000000; stroke-linecap:butt; stroke-linejoin:round; stroke-width:4; stroke-opacity:1; fill:none" points="
  225.987,1285.17 244.885,1285.17 
  "/>
<polyline clip-path="url(#clip070)" style="stroke:#000000; stroke-linecap:butt; stroke-linejoin:round; stroke-width:4; stroke-opacity:1; fill:none" points="
  225.987,866.697 244.885,866.697 
  "/>
<polyline clip-path="url(#clip070)" style="stroke:#000000; stroke-linecap:butt; stroke-linejoin:round; stroke-width:4; stroke-opacity:1; fill:none" points="
  225.987,448.224 244.885,448.224 
  "/>
<path clip-path="url(#clip070)" d="M173.668 2135.46 L189.987 2135.46 L189.987 2139.39 L168.043 2139.39 L168.043 2135.46 Q170.705 2132.71 175.288 2128.08 Q179.895 2123.42 181.075 2122.08 Q183.321 2119.56 184.2 2117.82 Q185.103 2116.06 185.103 2114.37 Q185.103 2111.62 183.159 2109.88 Q181.238 2108.15 178.136 2108.15 Q175.937 2108.15 173.483 2108.91 Q171.052 2109.67 168.275 2111.22 L168.275 2106.5 Q171.099 2105.37 173.552 2104.79 Q176.006 2104.21 178.043 2104.21 Q183.413 2104.21 186.608 2106.9 Q189.802 2109.58 189.802 2114.07 Q189.802 2116.2 188.992 2118.12 Q188.205 2120.02 186.099 2122.61 Q185.52 2123.28 182.418 2126.5 Q179.316 2129.7 173.668 2135.46 Z" fill="#000000" fill-rule="evenodd" fill-opacity="1" /><path clip-path="url(#clip070)" d="M180.404 1690.44 L168.599 1708.89 L180.404 1708.89 L180.404 1690.44 M179.177 1686.36 L185.057 1686.36 L185.057 1708.89 L189.987 1708.89 L189.987 1712.77 L185.057 1712.77 L185.057 1720.92 L180.404 1720.92 L180.404 1712.77 L164.802 1712.77 L164.802 1708.26 L179.177 1686.36 Z" fill="#000000" fill-rule="evenodd" fill-opacity="1" /><path clip-path="url(#clip070)" d="M178.46 1283.31 Q175.312 1283.31 173.46 1285.46 Q171.631 1287.61 171.631 1291.36 Q171.631 1295.09 173.46 1297.26 Q175.312 1299.42 178.46 1299.42 Q181.608 1299.42 183.437 1297.26 Q185.288 1295.09 185.288 1291.36 Q185.288 1287.61 183.437 1285.46 Q181.608 1283.31 178.46 1283.31 M187.742 1268.65 L187.742 1272.91 Q185.983 1272.08 184.177 1271.64 Q182.395 1271.2 180.636 1271.2 Q176.006 1271.2 173.552 1274.32 Q171.122 1277.45 170.775 1283.77 Q172.14 1281.75 174.201 1280.69 Q176.261 1279.6 178.738 1279.6 Q183.946 1279.6 186.955 1282.77 Q189.987 1285.92 189.987 1291.36 Q189.987 1296.69 186.839 1299.9 Q183.691 1303.12 178.46 1303.12 Q172.464 1303.12 169.293 1298.54 Q166.122 1293.93 166.122 1285.2 Q166.122 1277.01 170.011 1272.15 Q173.9 1267.26 180.45 1267.26 Q182.21 1267.26 183.992 1267.61 Q185.798 1267.96 187.742 1268.65 Z" fill="#000000" fill-rule="evenodd" fill-opacity="1" /><path clip-path="url(#clip070)" d="M178.136 867.565 Q174.802 867.565 172.881 869.347 Q170.983 871.129 170.983 874.254 Q170.983 877.379 172.881 879.162 Q174.802 880.944 178.136 880.944 Q181.469 880.944 183.39 879.162 Q185.312 877.356 185.312 874.254 Q185.312 871.129 183.39 869.347 Q181.492 867.565 178.136 867.565 M173.46 865.574 Q170.451 864.833 168.761 862.773 Q167.094 860.713 167.094 857.75 Q167.094 853.606 170.034 851.199 Q172.997 848.792 178.136 848.792 Q183.298 848.792 186.237 851.199 Q189.177 853.606 189.177 857.75 Q189.177 860.713 187.487 862.773 Q185.821 864.833 182.835 865.574 Q186.214 866.361 188.089 868.653 Q189.987 870.944 189.987 874.254 Q189.987 879.277 186.909 881.963 Q183.853 884.648 178.136 884.648 Q172.418 884.648 169.339 881.963 Q166.284 879.277 166.284 874.254 Q166.284 870.944 168.182 868.653 Q170.08 866.361 173.46 865.574 M171.747 858.19 Q171.747 860.875 173.413 862.379 Q175.103 863.884 178.136 863.884 Q181.145 863.884 182.835 862.379 Q184.548 860.875 184.548 858.19 Q184.548 855.504 182.835 854 Q181.145 852.495 178.136 852.495 Q175.103 852.495 173.413 854 Q171.747 855.504 171.747 858.19 Z" fill="#000000" fill-rule="evenodd" fill-opacity="1" /><path clip-path="url(#clip070)" d="M138.691 461.569 L146.33 461.569 L146.33 435.203 L138.02 436.87 L138.02 432.61 L146.284 430.944 L150.96 430.944 L150.96 461.569 L158.599 461.569 L158.599 465.504 L138.691 465.504 L138.691 461.569 Z" fill="#000000" fill-rule="evenodd" fill-opacity="1" /><path clip-path="url(#clip070)" d="M178.043 434.022 Q174.432 434.022 172.603 437.587 Q170.798 441.129 170.798 448.258 Q170.798 455.365 172.603 458.93 Q174.432 462.471 178.043 462.471 Q181.677 462.471 183.483 458.93 Q185.312 455.365 185.312 448.258 Q185.312 441.129 183.483 437.587 Q181.677 434.022 178.043 434.022 M178.043 430.319 Q183.853 430.319 186.909 434.925 Q189.987 439.509 189.987 448.258 Q189.987 456.985 186.909 461.592 Q183.853 466.175 178.043 466.175 Q172.233 466.175 169.154 461.592 Q166.099 456.985 166.099 448.258 Q166.099 439.509 169.154 434.925 Q172.233 430.319 178.043 430.319 Z" fill="#000000" fill-rule="evenodd" fill-opacity="1" /><path clip-path="url(#clip070)" d="M40.2442 1230.62 L40.2442 1224.19 L82.3533 1224.19 L82.3533 1201.05 L87.7642 1201.05 L87.7642 1230.62 L40.2442 1230.62 Z" fill="#000000" fill-rule="evenodd" fill-opacity="1" /><path clip-path="url(#clip070)" d="M56.2221 1181.89 Q56.2221 1186.6 59.9142 1189.34 Q63.5745 1192.08 69.972 1192.08 Q76.3695 1192.08 80.0617 1189.37 Q83.7219 1186.64 83.7219 1181.89 Q83.7219 1177.21 80.0298 1174.48 Q76.3377 1171.74 69.972 1171.74 Q63.6381 1171.74 59.946 1174.48 Q56.2221 1177.21 56.2221 1181.89 M51.2568 1181.89 Q51.2568 1174.25 56.2221 1169.89 Q61.1873 1165.53 69.972 1165.53 Q78.7249 1165.53 83.7219 1169.89 Q88.6872 1174.25 88.6872 1181.89 Q88.6872 1189.56 83.7219 1193.92 Q78.7249 1198.25 69.972 1198.25 Q61.1873 1198.25 56.2221 1193.92 Q51.2568 1189.56 51.2568 1181.89 Z" fill="#000000" fill-rule="evenodd" fill-opacity="1" /><path clip-path="url(#clip070)" d="M53.1665 1133.1 L58.7047 1133.1 Q57.4316 1135.58 56.795 1138.26 Q56.1584 1140.93 56.1584 1143.79 Q56.1584 1148.15 57.4952 1150.35 Q58.832 1152.52 61.5056 1152.52 Q63.5426 1152.52 64.7203 1150.96 Q65.8661 1149.4 66.9165 1144.69 L67.3621 1142.68 Q68.6989 1136.44 71.1497 1133.83 Q73.5686 1131.19 77.9291 1131.19 Q82.8944 1131.19 85.7908 1135.14 Q88.6872 1139.05 88.6872 1145.93 Q88.6872 1148.79 88.1143 1151.91 Q87.5732 1155 86.4592 1158.44 L80.4118 1158.44 Q82.0987 1155.19 82.958 1152.04 Q83.7856 1148.89 83.7856 1145.8 Q83.7856 1141.66 82.3851 1139.43 Q80.9529 1137.21 78.3747 1137.21 Q75.9876 1137.21 74.7145 1138.83 Q73.4413 1140.42 72.2637 1145.86 L71.7862 1147.9 Q70.6404 1153.34 68.2851 1155.76 Q65.898 1158.18 61.7602 1158.18 Q56.7313 1158.18 53.9941 1154.62 Q51.2568 1151.05 51.2568 1144.49 Q51.2568 1141.25 51.7343 1138.38 Q52.2117 1135.52 53.1665 1133.1 Z" fill="#000000" fill-rule="evenodd" fill-opacity="1" /><path clip-path="url(#clip070)" d="M53.1665 1099.14 L58.7047 1099.14 Q57.4316 1101.62 56.795 1104.3 Q56.1584 1106.97 56.1584 1109.83 Q56.1584 1114.19 57.4952 1116.39 Q58.832 1118.55 61.5056 1118.55 Q63.5426 1118.55 64.7203 1116.99 Q65.8661 1115.44 66.9165 1110.72 L67.3621 1108.72 Q68.6989 1102.48 71.1497 1099.87 Q73.5686 1097.23 77.9291 1097.23 Q82.8944 1097.23 85.7908 1101.18 Q88.6872 1105.09 88.6872 1111.97 Q88.6872 1114.83 88.1143 1117.95 Q87.5732 1121.04 86.4592 1124.47 L80.4118 1124.47 Q82.0987 1121.23 82.958 1118.08 Q83.7856 1114.93 83.7856 1111.84 Q83.7856 1107.7 82.3851 1105.47 Q80.9529 1103.24 78.3747 1103.24 Q75.9876 1103.24 74.7145 1104.87 Q73.4413 1106.46 72.2637 1111.9 L71.7862 1113.94 Q70.6404 1119.38 68.2851 1121.8 Q65.898 1124.22 61.7602 1124.22 Q56.7313 1124.22 53.9941 1120.66 Q51.2568 1117.09 51.2568 1110.53 Q51.2568 1107.29 51.7343 1104.42 Q52.2117 1101.56 53.1665 1099.14 Z" fill="#000000" fill-rule="evenodd" fill-opacity="1" /><path clip-path="url(#clip070)" d="M980.004 12.096 L988.187 12.096 L988.187 65.6895 L1017.64 65.6895 L1017.64 72.576 L980.004 72.576 L980.004 12.096 Z" fill="#000000" fill-rule="evenodd" fill-opacity="1" /><path clip-path="url(#clip070)" d="M1063.25 48.0275 L1063.25 51.6733 L1028.98 51.6733 Q1029.47 59.3701 1033.6 63.421 Q1037.77 67.4314 1045.18 67.4314 Q1049.48 67.4314 1053.49 66.3781 Q1057.54 65.3249 1061.51 63.2184 L1061.51 70.267 Q1057.5 71.9684 1053.28 72.8596 Q1049.07 73.7508 1044.74 73.7508 Q1033.88 73.7508 1027.52 67.4314 Q1021.2 61.1119 1021.2 50.3365 Q1021.2 39.1965 1027.2 32.6746 Q1033.23 26.1121 1043.44 26.1121 Q1052.6 26.1121 1057.9 32.0264 Q1063.25 37.9003 1063.25 48.0275 M1055.8 45.84 Q1055.72 39.7232 1052.35 36.0774 Q1049.03 32.4315 1043.52 32.4315 Q1037.28 32.4315 1033.52 35.9558 Q1029.79 39.4801 1029.22 45.8805 L1055.8 45.84 Z" fill="#000000" fill-rule="evenodd" fill-opacity="1" /><path clip-path="url(#clip070)" d="M1096.1 49.7694 Q1087.07 49.7694 1083.59 51.8354 Q1080.1 53.9013 1080.1 58.8839 Q1080.1 62.8538 1082.69 65.2034 Q1085.33 67.5124 1089.82 67.5124 Q1096.02 67.5124 1099.75 63.1374 Q1103.52 58.7219 1103.52 51.4303 L1103.52 49.7694 L1096.1 49.7694 M1110.97 46.6907 L1110.97 72.576 L1103.52 72.576 L1103.52 65.6895 Q1100.96 69.8214 1097.16 71.8063 Q1093.35 73.7508 1087.84 73.7508 Q1080.87 73.7508 1076.74 69.8619 Q1072.65 65.9325 1072.65 59.3701 Q1072.65 51.7138 1077.75 47.825 Q1082.9 43.9361 1093.06 43.9361 L1103.52 43.9361 L1103.52 43.2069 Q1103.52 38.0623 1100.11 35.2672 Q1096.75 32.4315 1090.63 32.4315 Q1086.75 32.4315 1083.06 33.3632 Q1079.37 34.295 1075.97 36.1584 L1075.97 29.2718 Q1080.06 27.692 1083.91 26.9223 Q1087.76 26.1121 1091.4 26.1121 Q1101.25 26.1121 1106.11 31.2163 Q1110.97 36.3204 1110.97 46.6907 Z" fill="#000000" fill-rule="evenodd" fill-opacity="1" /><path clip-path="url(#clip070)" d="M1152.61 34.1734 Q1151.36 33.4443 1149.86 33.1202 Q1148.4 32.7556 1146.62 32.7556 Q1140.3 32.7556 1136.9 36.8875 Q1133.53 40.9789 1133.53 48.6757 L1133.53 72.576 L1126.04 72.576 L1126.04 27.2059 L1133.53 27.2059 L1133.53 34.2544 Q1135.88 30.1225 1139.65 28.1376 Q1143.42 26.1121 1148.81 26.1121 Q1149.57 26.1121 1150.51 26.2337 Q1151.44 26.3147 1152.57 26.5172 L1152.61 34.1734 Z" fill="#000000" fill-rule="evenodd" fill-opacity="1" /><path clip-path="url(#clip070)" d="M1196.69 45.1919 L1196.69 72.576 L1189.23 72.576 L1189.23 45.4349 Q1189.23 38.994 1186.72 35.7938 Q1184.21 32.5936 1179.19 32.5936 Q1173.15 32.5936 1169.67 36.4419 Q1166.18 40.2903 1166.18 46.9338 L1166.18 72.576 L1158.69 72.576 L1158.69 27.2059 L1166.18 27.2059 L1166.18 34.2544 Q1168.86 30.163 1172.46 28.1376 Q1176.11 26.1121 1180.85 26.1121 Q1188.67 26.1121 1192.68 30.9732 Q1196.69 35.7938 1196.69 45.1919 Z" fill="#000000" fill-rule="evenodd" fill-opacity="1" /><path clip-path="url(#clip070)" d="M1211.55 27.2059 L1219.01 27.2059 L1219.01 72.576 L1211.55 72.576 L1211.55 27.2059 M1211.55 9.54393 L1219.01 9.54393 L1219.01 18.9825 L1211.55 18.9825 L1211.55 9.54393 Z" fill="#000000" fill-rule="evenodd" fill-opacity="1" /><path clip-path="url(#clip070)" d="M1272.32 45.1919 L1272.32 72.576 L1264.86 72.576 L1264.86 45.4349 Q1264.86 38.994 1262.35 35.7938 Q1259.84 32.5936 1254.82 32.5936 Q1248.78 32.5936 1245.3 36.4419 Q1241.81 40.2903 1241.81 46.9338 L1241.81 72.576 L1234.32 72.576 L1234.32 27.2059 L1241.81 27.2059 L1241.81 34.2544 Q1244.49 30.163 1248.09 28.1376 Q1251.74 26.1121 1256.48 26.1121 Q1264.3 26.1121 1268.31 30.9732 Q1272.32 35.7938 1272.32 45.1919 Z" fill="#000000" fill-rule="evenodd" fill-opacity="1" /><path clip-path="url(#clip070)" d="M1317.04 49.3643 Q1317.04 41.2625 1313.68 36.8065 Q1310.36 32.3505 1304.32 32.3505 Q1298.32 32.3505 1294.96 36.8065 Q1291.64 41.2625 1291.64 49.3643 Q1291.64 57.4256 1294.96 61.8816 Q1298.32 66.3376 1304.32 66.3376 Q1310.36 66.3376 1313.68 61.8816 Q1317.04 57.4256 1317.04 49.3643 M1324.49 66.9452 Q1324.49 78.5308 1319.35 84.1616 Q1314.2 89.8329 1303.59 89.8329 Q1299.66 89.8329 1296.18 89.2252 Q1292.69 88.6581 1289.41 87.4428 L1289.41 80.1917 Q1292.69 81.9741 1295.89 82.8248 Q1299.09 83.6755 1302.42 83.6755 Q1309.75 83.6755 1313.39 79.8271 Q1317.04 76.0193 1317.04 68.282 L1317.04 64.5957 Q1314.73 68.6061 1311.13 70.5911 Q1307.52 72.576 1302.5 72.576 Q1294.15 72.576 1289.05 66.2161 Q1283.94 59.8562 1283.94 49.3643 Q1283.94 38.832 1289.05 32.472 Q1294.15 26.1121 1302.5 26.1121 Q1307.52 26.1121 1311.13 28.0971 Q1314.73 30.082 1317.04 34.0924 L1317.04 27.2059 L1324.49 27.2059 L1324.49 66.9452 Z" fill="#000000" fill-rule="evenodd" fill-opacity="1" /><path clip-path="url(#clip070)" d="M1411.83 16.7545 L1411.83 25.383 Q1407.7 21.5346 1403 19.6307 Q1398.34 17.7268 1393.07 17.7268 Q1382.7 17.7268 1377.2 24.0867 Q1371.69 30.4061 1371.69 42.3968 Q1371.69 54.3469 1377.2 60.7069 Q1382.7 67.0263 1393.07 67.0263 Q1398.34 67.0263 1403 65.1223 Q1407.7 63.2184 1411.83 59.3701 L1411.83 67.9175 Q1407.54 70.8341 1402.72 72.2924 Q1397.94 73.7508 1392.59 73.7508 Q1378.86 73.7508 1370.96 65.3654 Q1363.06 56.9395 1363.06 42.3968 Q1363.06 27.8135 1370.96 19.4281 Q1378.86 11.0023 1392.59 11.0023 Q1398.02 11.0023 1402.8 12.4606 Q1407.62 13.8784 1411.83 16.7545 Z" fill="#000000" fill-rule="evenodd" fill-opacity="1" /><path clip-path="url(#clip070)" d="M1423.38 54.671 L1423.38 27.2059 L1430.83 27.2059 L1430.83 54.3874 Q1430.83 60.8284 1433.34 64.0691 Q1435.85 67.2693 1440.88 67.2693 Q1446.91 67.2693 1450.4 63.421 Q1453.92 59.5726 1453.92 52.9291 L1453.92 27.2059 L1461.37 27.2059 L1461.37 72.576 L1453.92 72.576 L1453.92 65.6084 Q1451.21 69.7404 1447.6 71.7658 Q1444.04 73.7508 1439.3 73.7508 Q1431.48 73.7508 1427.43 68.8897 Q1423.38 64.0286 1423.38 54.671 M1442.13 26.1121 L1442.13 26.1121 Z" fill="#000000" fill-rule="evenodd" fill-opacity="1" /><path clip-path="url(#clip070)" d="M1503.02 34.1734 Q1501.76 33.4443 1500.26 33.1202 Q1498.8 32.7556 1497.02 32.7556 Q1490.7 32.7556 1487.3 36.8875 Q1483.94 40.9789 1483.94 48.6757 L1483.94 72.576 L1476.44 72.576 L1476.44 27.2059 L1483.94 27.2059 L1483.94 34.2544 Q1486.29 30.1225 1490.05 28.1376 Q1493.82 26.1121 1499.21 26.1121 Q1499.98 26.1121 1500.91 26.2337 Q1501.84 26.3147 1502.98 26.5172 L1503.02 34.1734 Z" fill="#000000" fill-rule="evenodd" fill-opacity="1" /><path clip-path="url(#clip070)" d="M1505.49 27.2059 L1513.39 27.2059 L1527.56 65.2844 L1541.74 27.2059 L1549.64 27.2059 L1532.63 72.576 L1522.5 72.576 L1505.49 27.2059 Z" fill="#000000" fill-rule="evenodd" fill-opacity="1" /><path clip-path="url(#clip070)" d="M1598.74 48.0275 L1598.74 51.6733 L1564.47 51.6733 Q1564.95 59.3701 1569.09 63.421 Q1573.26 67.4314 1580.67 67.4314 Q1584.97 67.4314 1588.98 66.3781 Q1593.03 65.3249 1597 63.2184 L1597 70.267 Q1592.99 71.9684 1588.77 72.8596 Q1584.56 73.7508 1580.23 73.7508 Q1569.37 73.7508 1563.01 67.4314 Q1556.69 61.1119 1556.69 50.3365 Q1556.69 39.1965 1562.69 32.6746 Q1568.72 26.1121 1578.93 26.1121 Q1588.09 26.1121 1593.39 32.0264 Q1598.74 37.9003 1598.74 48.0275 M1591.29 45.84 Q1591.2 39.7232 1587.84 36.0774 Q1584.52 32.4315 1579.01 32.4315 Q1572.77 32.4315 1569.01 35.9558 Q1565.28 39.4801 1564.71 45.8805 L1591.29 45.84 Z" fill="#000000" fill-rule="evenodd" fill-opacity="1" /><polyline clip-path="url(#clip072)" style="stroke:#0000ff; stroke-linecap:butt; stroke-linejoin:round; stroke-width:8; stroke-opacity:1; fill:none" points="
  286.179,261.985 290.2,210.894 294.221,547.436 298.241,656.377 302.262,688.247 306.283,764.649 310.304,829.108 314.325,877.898 318.346,912.407 322.366,943.642 
  326.387,982.541 330.408,1019.68 334.429,1049.18 338.45,1071.79 342.47,1083.84 346.491,1098.63 350.512,1108.47 354.533,1119.79 358.554,1135.12 362.574,1149.25 
  366.595,1184.75 370.616,1279.6 374.637,1319.91 378.658,1363.37 382.679,1468.34 386.699,1538.68 390.72,1586.45 394.741,1631.98 398.762,1656.53 402.783,1623.92 
  406.803,1617.46 410.824,1662.96 414.845,1719.59 418.866,1763.12 422.887,1793.6 426.907,1802.18 430.928,1813.07 434.949,1826.5 438.97,1838.57 442.991,1849.09 
  447.012,1863.66 451.032,1883.94 455.053,1903.86 459.074,1914.68 463.095,1922.86 467.116,1929.15 471.136,1939.53 475.157,1941.99 479.178,1946.29 483.199,1954.24 
  487.22,1963.2 491.24,1972.42 495.261,1977.91 499.282,1982.63 503.303,1987.65 507.324,1990.95 511.345,1997.33 515.365,2001.44 519.386,2005.09 523.407,2009.19 
  527.428,2012.93 531.449,2014.82 535.469,2018.78 539.49,2021.19 543.511,2024.93 547.532,2027.41 551.553,2029.7 555.573,2032.74 559.594,2034.6 563.615,2036.21 
  567.636,2039.12 571.657,2041.23 575.678,2042.36 579.698,2045 583.719,2046.44 587.74,2048.13 591.761,2049.73 595.782,2051.17 599.802,2052 603.823,2053.44 
  607.844,2053.85 611.865,2055.64 615.886,2056.49 619.906,2057.43 623.927,2058.15 627.948,2059.06 631.969,2059.94 635.99,2060.63 640.011,2061.6 644.031,2062.09 
  648.052,2062.66 652.073,2063.34 656.094,2063.45 660.115,2065.01 664.135,2065.1 668.156,2065.84 672.177,2066.2 676.198,2067.37 680.219,2068.2 684.239,2068.51 
  688.26,2069.35 692.281,2069.64 696.302,2070.33 700.323,2070.99 704.344,2071.79 708.364,2071.93 712.385,2072.57 716.406,2073.05 720.427,2073.27 724.448,2073.98 
  728.468,2074.41 732.489,2074.51 736.51,2074.88 740.531,2074.91 744.552,2075.58 748.572,2075.87 752.593,2076.41 756.614,2076.79 760.635,2077.35 764.656,2077.69 
  768.677,2078.03 772.697,2078.34 776.718,2078.83 780.739,2078.94 784.76,2079.25 788.781,2079.59 792.801,2079.61 796.822,2079.95 800.843,2080.25 804.864,2080.61 
  808.885,2080.79 812.905,2081.18 816.926,2081.51 820.947,2081.98 824.968,2082.38 828.989,2082.32 833.009,2082.58 837.03,2082.83 841.051,2082.98 845.072,2083.31 
  849.093,2083.57 853.114,2083.7 857.134,2083.7 861.155,2083.91 865.176,2083.96 869.197,2084.07 873.218,2084.14 877.238,2084.32 881.259,2084.77 885.28,2085.03 
  889.301,2085.07 893.322,2085.26 897.342,2085.46 901.363,2085.52 905.384,2085.84 909.405,2085.94 913.426,2085.93 917.447,2086.56 921.467,2086.83 925.488,2087.03 
  929.509,2087.12 933.53,2087.25 937.551,2087.31 941.571,2087.33 945.592,2087.7 949.613,2087.9 953.634,2088.2 957.655,2088.48 961.675,2088.58 965.696,2088.54 
  969.717,2088.62 973.738,2088.83 977.759,2088.98 981.78,2089.17 985.8,2089.22 989.821,2089.46 993.842,2089.54 997.863,2089.53 1001.88,2089.68 1005.9,2089.7 
  1009.93,2089.74 1013.95,2089.82 1017.97,2089.89 1021.99,2089.95 1026.01,2090.02 1030.03,2090.1 1034.05,2090.25 1038.07,2090.3 1042.09,2090.43 1046.11,2090.48 
  1050.13,2090.6 1054.15,2090.59 1058.17,2090.65 1062.2,2090.68 1066.22,2090.7 1070.24,2090.72 1074.26,2090.75 1078.28,2090.86 1082.3,2090.89 1086.32,2091.06 
  1090.34,2091.21 1094.36,2091.21 1098.38,2091.32 1102.4,2091.4 1106.42,2091.39 1110.45,2091.45 1114.47,2091.53 1118.49,2091.46 1122.51,2091.88 1126.53,2091.94 
  1130.55,2092.32 1134.57,2092.38 1138.59,2092.51 1142.61,2092.65 1146.63,2093.09 1150.65,2093.16 1154.67,2093.59 1158.7,2093.52 1162.72,2093.6 1166.74,2093.75 
  1170.76,2094.03 1174.78,2094.44 1178.8,2094.62 1182.82,2094.76 1186.84,2094.93 1190.86,2094.93 1194.88,2095.07 1198.9,2095.21 1202.92,2095.48 1206.95,2095.51 
  1210.97,2095.71 1214.99,2095.7 1219.01,2096.28 1223.03,2096.14 1227.05,2096.07 1231.07,2096.27 1235.09,2096.63 1239.11,2097.06 1243.13,2097.32 1247.15,2097.1 
  1251.17,2096.84 1255.19,2097.78 1259.22,2097.01 1263.24,2097.02 1267.26,2096.29 1271.28,2097.36 1275.3,2095.94 1279.32,2097.04 1283.34,2096.82 1287.36,2096.08 
  1291.38,2098.31 1295.4,2098.5 1299.42,2098.42 1303.44,2098.93 1307.47,2099.1 1311.49,2099.15 1315.51,2100.16 1319.53,2100.94 1323.55,2100.81 1327.57,2101.6 
  1331.59,2101.15 1335.61,2101.75 1339.63,2102.07 1343.65,2102.17 1347.67,2102.43 1351.69,2102.74 1355.72,2103 1359.74,2103.23 1363.76,2103.4 1367.78,2103.44 
  1371.8,2103.37 1375.82,2103.61 1379.84,2103.74 1383.86,2103.57 1387.88,2103.83 1391.9,2104.06 1395.92,2104.17 1399.94,2104.21 1403.96,2104.57 1407.99,2104.74 
  1412.01,2104.84 1416.03,2104.87 1420.05,2104.95 1424.07,2105.07 1428.09,2105.14 1432.11,2105.18 1436.13,2105.23 1440.15,2105.3 1444.17,2105.43 1448.19,2105.37 
  1452.21,2105.43 1456.24,2105.52 1460.26,2105.4 1464.28,2105.54 1468.3,2105.48 1472.32,2105.62 1476.34,2105.69 1480.36,2105.83 1484.38,2106.02 1488.4,2106.01 
  1492.42,2106.04 1496.44,2106.14 1500.46,2106.19 1504.49,2106.27 1508.51,2106.31 1512.53,2106.26 1516.55,2106.29 1520.57,2106.36 1524.59,2106.36 1528.61,2106.39 
  1532.63,2106.39 1536.65,2106.46 1540.67,2106.43 1544.69,2106.5 1548.71,2106.5 1552.73,2106.51 1556.76,2106.55 1560.78,2106.6 1564.8,2106.6 1568.82,2106.6 
  1572.84,2106.61 1576.86,2106.69 1580.88,2106.68 1584.9,2106.69 1588.92,2106.71 1592.94,2106.78 1596.96,2106.77 1600.98,2106.82 1605.01,2106.88 1609.03,2106.87 
  1613.05,2106.88 1617.07,2106.82 1621.09,2106.88 1625.11,2106.85 1629.13,2106.87 1633.15,2106.87 1637.17,2106.88 1641.19,2106.92 1645.21,2106.9 1649.23,2106.97 
  1653.26,2106.97 1657.28,2106.97 1661.3,2106.97 1665.32,2106.97 1669.34,2106.97 1673.36,2106.97 1677.38,2106.97 1681.4,2106.97 1685.42,2106.97 1689.44,2106.97 
  1693.46,2106.97 1697.48,2106.97 1701.5,2106.97 1705.53,2106.97 1709.55,2106.97 1713.57,2106.97 1717.59,2107.01 1721.61,2107.01 1725.63,2107.07 1729.65,2107.07 
  1733.67,2107.1 1737.69,2107.15 1741.71,2107.16 1745.73,2107.16 1749.75,2107.17 1753.78,2107.2 1757.8,2107.23 1761.82,2107.24 1765.84,2107.34 1769.86,2107.42 
  1773.88,2107.51 1777.9,2107.57 1781.92,2107.76 1785.94,2107.71 1789.96,2107.89 1793.98,2108.05 1798,2108.04 1802.03,2108.14 1806.05,2108.33 1810.07,2108.16 
  1814.09,2108.5 1818.11,2108.47 1822.13,2108.43 1826.15,2108.58 1830.17,2108.49 1834.19,2108.76 1838.21,2108.87 1842.23,2108.85 1846.25,2109.02 1850.27,2109.1 
  1854.3,2109.12 1858.32,2109.13 1862.34,2109.15 1866.36,2108.89 1870.38,2109.18 1874.4,2108.97 1878.42,2109.07 1882.44,2109.13 1886.46,2109.12 1890.48,2109.3 
  1894.5,2109.45 1898.52,2109.48 1902.55,2109.64 1906.57,2109.63 1910.59,2109.67 1914.61,2109.59 1918.63,2109.79 1922.65,2109.79 1926.67,2109.95 1930.69,2109.91 
  1934.71,2110.18 1938.73,2110.4 1942.75,2110.64 1946.77,2110.77 1950.8,2110.87 1954.82,2111.07 1958.84,2111.04 1962.86,2111.36 1966.88,2111.31 1970.9,2111.38 
  1974.92,2111.44 1978.94,2111.48 1982.96,2111.58 1986.98,2111.63 1991,2111.67 1995.02,2111.84 1999.05,2111.93 2003.07,2112 2007.09,2112.05 2011.11,2112.07 
  2015.13,2112.14 2019.15,2112.2 2023.17,2112.35 2027.19,2112.39 2031.21,2112.39 2035.23,2112.4 2039.25,2112.5 2043.27,2112.56 2047.29,2112.67 2051.32,2112.64 
  2055.34,2112.75 2059.36,2112.76 2063.38,2112.85 2067.4,2112.95 2071.42,2112.76 2075.44,2112.97 2079.46,2112.87 2083.48,2113.04 2087.5,2113.14 2091.52,2113.23 
  2095.54,2113.3 2099.57,2113.38 2103.59,2113.66 2107.61,2113.49 2111.63,2113.25 2115.65,2113.83 2119.67,2113.76 2123.69,2114.16 2127.71,2113.97 2131.73,2113.91 
  2135.75,2113.95 2139.77,2114.15 2143.79,2114.5 2147.82,2113.25 2151.84,2114.22 2155.86,2114 2159.88,2114.43 2163.9,2114.75 2167.92,2115.08 2171.94,2114.9 
  2175.96,2115.25 2179.98,2114.92 2184,2114.9 2188.02,2115.17 2192.04,2115.03 2196.06,2115.47 2200.09,2115.6 2204.11,2115.44 2208.13,2115.5 2212.15,2115.73 
  2216.17,2115.93 2220.19,2115.53 2224.21,2115.68 2228.23,2115.66 2232.25,2115.8 2236.27,2115.72 2240.29,2115.73 2244.31,2116.29 2248.34,2116.38 2252.36,2116.63 
  2256.38,2116.7 2260.4,2116.55 2264.42,2116.75 2268.44,2116.67 2272.46,2116.63 2276.48,2116.83 2280.5,2116.88 2284.52,2116.81 2288.54,2116.75 2292.56,2116.96 
  
  "/>
</svg>
